<svg width="28" height="28" viewBox="0 0 28 28" fill="none" xmlns="http://www.w3.org/2000/svg">
<path d="M26.7755 0H0.333776C0.255423 -1.11046e-06 0.179567 0.0275631 0.119493 0.0778652C0.0594185 0.128167 0.0189561 0.198001 0.00519138 0.275135C-0.00857329 0.35227 0.00523735 0.431788 0.0442046 0.499764C0.0831719 0.56774 0.144812 0.61984 0.218329 0.646941L24.1344 8.47706C24.1618 8.48601 24.1914 8.48507 24.2181 8.47439C24.2449 8.46372 24.267 8.44399 24.2806 8.41866L27.8493 1.79879C27.9495 1.61296 27.9997 1.4043 27.9951 1.19323C27.9905 0.982164 27.9312 0.775905 27.823 0.594625C27.7148 0.413346 27.5613 0.263253 27.3778 0.159025C27.1942 0.0547975 26.9866 2.8511e-06 26.7755 0Z" fill="#8491A0"/>
<path d="M0.00585938 27.6785C0.00586055 27.7504 0.0298538 27.8202 0.0740392 27.877C0.118225 27.9337 0.180077 27.9741 0.249799 27.9917C0.319521 28.0093 0.393127 28.0032 0.458961 27.9742C0.524795 27.9453 0.579092 27.8952 0.613254 27.8319L5.21358 19.3098C5.31811 19.1162 5.47308 18.9544 5.66206 18.8417C5.85104 18.729 6.067 18.6694 6.28705 18.6694H18.024C18.2441 18.6694 18.4602 18.6099 18.6492 18.497C18.8383 18.3842 18.9932 18.2223 19.0977 18.0285L22.6047 11.5258C22.6126 11.511 22.6166 11.4944 22.6163 11.4776C22.6159 11.4608 22.6112 11.4444 22.6026 11.4299C22.594 11.4155 22.5818 11.4036 22.5672 11.3953C22.5526 11.387 22.536 11.3826 22.5192 11.3826H1.22572C0.902192 11.3826 0.591918 11.5112 0.363151 11.7399C0.134384 11.9687 0.00586208 12.279 0.00585938 12.6025V27.6785Z" fill="#8491A0"/>
</svg>
