<svg width="85" height="21" viewBox="0 0 85 21" fill="none" xmlns="http://www.w3.org/2000/svg">
<path d="M38.6427 10.1573C41.3291 9.27056 41.8166 7.02924 41.8101 5.20268C41.8049 2.41422 39.8245 0.00179789 33.9617 0.00179789L23.0195 0V20.9568H33.9336C39.8311 20.9568 42.0012 17.9471 42.0012 14.9324C42.0012 11.2819 38.6427 10.1573 38.6427 10.1573ZM28.2124 4.55929H35.5794L35.6061 4.56468C36.4377 4.71111 37.0431 5.41398 37.0431 6.2386C37.0431 7.08235 36.3944 7.87657 35.5372 7.99293L28.2174 8.00388L28.2124 4.55929ZM35.225 16.0728H28.2124V12.5641H35.3968L35.4137 12.5659C36.3075 12.6684 36.9845 13.4069 36.9845 14.2846C36.9845 15.241 36.1832 16.0581 35.225 16.0728Z" fill="#8491A0"/>
<path d="M66.5039 0.00268555H84.995L84.9848 4.57668H71.6416L71.6544 7.9546H83.6837V12.5521H71.6544V16.2073H84.9994L84.9968 21H66.5039V0.00268555Z" fill="#8491A0"/>
<path d="M55.7485 0.0302734H44.5664V20.9938H49.7013V12.5121C49.7013 12.5121 55.3554 12.5057 55.3564 12.5057C56.9759 12.5304 58.2354 13.8492 58.2354 15.4754V20.9755L63.2616 20.9737L63.2515 14.2077C63.2515 11.0735 60.2056 10.1474 60.2056 10.1474C60.2056 10.1474 63.3197 9.22108 63.3197 5.51567C63.3197 0.98204 59.4002 0.0302734 55.7485 0.0302734ZM58.5513 6.53427C58.4591 7.22342 57.7659 7.97107 56.9004 7.97107L49.6837 7.97385V4.61702H56.904C57.7659 4.61702 58.4418 5.24847 58.5513 6.07686V6.53427Z" fill="#8491A0"/>
<path d="M19.6896 15.928C19.6157 15.9299 12.6706 16.0634 10.273 15.8309C6.41091 15.4549 5.0433 12.6115 5.0433 10.2906C5.0433 7.39692 7.0278 5.26738 10.1022 4.86749C11.5647 4.6771 19.5627 4.76682 19.6472 4.76764L19.8154 4.7696L19.8324 0.00244141L19.6625 0.0034214L10.6104 0.0199266C9.60272 0.0812096 7.93192 0.181878 6.22101 0.877398C4.57751 1.62586 3.14709 2.77553 2.07904 4.20596C0.719648 6.02696 0 8.18772 0 10.4543C0 11.1673 0.0567228 11.8748 0.172636 12.5538C0.824052 15.7322 2.92019 18.3623 5.92588 19.7772C6.94082 20.221 8.50606 20.7536 11.6628 20.9293C11.6693 20.9293 13.3634 20.9649 13.3634 20.9649L19.674 20.9713H19.8407L19.8585 15.926L19.6896 15.928Z" fill="#8491A0"/>
</svg>
