<svg width="108" height="25" viewBox="0 0 108 25" fill="none" xmlns="http://www.w3.org/2000/svg">
<path d="M7.96378 8.70417C7.96378 8.37448 7.8519 8.09039 7.62767 7.85096C7.40344 7.61248 7.12566 7.49229 6.79386 7.49229C5.74872 7.49229 4.66199 8.60536 3.53367 10.831C2.48901 12.8424 1.96596 14.441 1.96596 15.6277C1.96596 16.6999 2.33076 17.2353 3.06082 17.2353C4.08922 17.2353 5.1181 16.1963 6.1465 14.1194C6.84358 12.7018 7.39149 11.2015 7.78927 9.61914C7.90497 9.15738 7.96378 8.85239 7.96378 8.70417ZM10.9749 14.9355V14.9854C10.9586 15.0182 10.95 15.0429 10.95 15.059C10.602 15.8999 10.1454 16.6168 9.5812 17.2106C8.86787 17.9365 8.12107 18.2985 7.34129 18.2985C6.44532 18.2985 5.99781 17.7631 5.99781 16.6913C5.99781 16.4115 6.0222 16.1388 6.07192 15.8752C4.96081 17.4909 3.74977 18.2985 2.43833 18.2985C1.65854 18.2985 1.04513 17.9935 0.597152 17.384C0.199369 16.8562 0 16.1887 0 15.3806C0 13.7322 0.721937 11.9108 2.16485 9.91557C3.70817 7.80536 5.27588 6.75073 6.86844 6.75073C7.54878 6.75073 8.12107 7.04764 8.58579 7.64099C8.71822 7.14645 8.98405 6.89895 9.38231 6.89895C10.1454 6.89895 10.5269 7.03149 10.5269 7.29467C10.5269 7.34455 10.3361 7.93743 9.9546 9.07472C8.47726 13.4766 7.73955 16.0073 7.73955 16.6666C7.73955 16.9797 7.85525 17.1365 8.08808 17.1365C8.55185 17.1365 9.08732 16.716 9.69308 15.8752C10.2988 15.0343 10.6096 14.6139 10.6263 14.6139C10.8587 14.6139 10.9749 14.7217 10.9749 14.9355Z" fill="#8491A0"/>
<path d="M23.6171 5.04432C23.6171 3.65999 23.281 2.66664 22.6098 2.06522C21.9371 1.46332 20.9206 1.17068 19.5609 1.18731C18.499 1.18731 17.9679 1.41819 17.9679 1.87947V8.9265C18.5817 9.02579 19.0293 9.07472 19.3118 9.07472C22.1986 9.05904 23.6334 7.7151 23.6171 5.04432ZM26.5541 5.04432C26.5541 8.3417 24.3051 9.98968 19.8095 9.98968C19.2281 9.98968 18.6147 9.95738 17.9679 9.89135V14.2928C17.9679 15.8424 18.2418 16.7327 18.7892 16.9636C18.8222 16.9797 19.1789 17.0871 19.8597 17.2852C20.2575 17.384 20.4478 17.5161 20.432 17.6804C20.4153 17.8785 20.2824 17.9773 20.0333 17.9773H13.2643C13.0157 17.9773 12.8827 17.8785 12.8665 17.6804C12.8498 17.5161 13.0405 17.384 13.4388 17.2852C14.1186 17.0871 14.4753 16.9797 14.5088 16.9636C15.0562 16.7327 15.3297 15.8424 15.3297 14.2928V4.15453C15.3297 2.60489 15.0562 1.71462 14.5088 1.48374C14.4753 1.46759 14.1186 1.35975 13.4388 1.16213C13.0405 1.06332 12.8498 0.93173 12.8665 0.766409C12.8827 0.568309 13.0157 0.469971 13.2643 0.469971H20.5563C22.2818 0.469971 23.675 0.824366 24.7369 1.53315C25.9479 2.32412 26.5541 3.49467 26.5541 5.04432Z" fill="#8491A0"/>
<path d="M32.7156 17.6802C32.6988 17.8783 32.5659 17.9771 32.3173 17.9771H26.942C26.6929 17.9771 26.56 17.8783 26.5437 17.6802C26.527 17.5486 26.7178 17.4327 27.116 17.3339C27.63 17.2189 27.9871 17.0954 28.186 16.9633C28.3849 16.8317 28.493 16.4688 28.5097 15.875V14.2926V2.89299C28.5097 2.44834 28.4681 2.15522 28.3849 2.01508C28.3022 1.87541 28.0531 1.8051 27.6391 1.8051C27.008 1.8051 26.6929 1.70582 26.6929 1.50819C26.6929 1.29442 26.8918 1.14572 27.2901 1.06306C28.2525 0.864968 29.1982 0.593234 30.1276 0.247391C30.2433 0.214137 30.3351 0.19751 30.4011 0.19751C30.5665 0.19751 30.6664 0.292522 30.6999 0.48207C30.7329 0.671619 30.7496 1.07162 30.7496 1.68159V14.2926C30.7496 15.9581 30.8572 16.8479 31.0728 16.9633C31.189 17.0294 31.5461 17.1363 32.1433 17.285C32.5415 17.4004 32.7318 17.532 32.7156 17.6802Z" fill="#8491A0"/>
<path d="M40.0568 14.6746V11.9187C38.829 12.1487 37.9082 12.4275 37.2948 12.7553C36.2994 13.3135 35.8017 14.0841 35.8017 15.0684C35.8017 15.5933 35.9547 16.0157 36.2616 16.3354C36.5686 16.6556 36.9874 16.8152 37.5185 16.8152C38.1817 16.8152 38.7712 16.61 39.2856 16.2C39.7996 15.79 40.0568 15.2812 40.0568 14.6746ZM44.6107 16.2708C44.1632 17.5406 43.383 18.1748 42.2719 18.1748C41.0775 18.1748 40.347 17.5739 40.0821 16.3696C38.8204 17.5739 37.5434 18.1748 36.2492 18.1748C35.4197 18.1748 34.7642 17.9368 34.2832 17.4598C33.8018 16.9829 33.5613 16.333 33.5613 15.5107C33.5613 14.0142 34.3741 12.8959 36.0006 12.1553C36.9295 11.7444 38.2816 11.4233 40.0568 11.1933C40.1065 9.63084 39.9822 8.61944 39.6834 8.15864C39.4348 7.74771 38.8711 7.55056 37.9914 7.56671C37.2608 7.58334 36.7799 7.81422 36.5475 8.25935C36.4318 8.67122 36.3152 9.08358 36.1995 9.49545C36.0336 9.94058 35.6769 10.1634 35.129 10.1634C34.3989 10.1634 34.0346 9.85032 34.0346 9.22324C34.0346 8.41612 34.5404 7.78951 35.5521 7.34438C36.3319 7.01469 37.2116 6.84985 38.1903 6.84985C40.8782 6.866 42.2221 7.78714 42.2221 9.61279V15.7054C42.2221 16.5938 42.4707 17.0294 42.9684 17.0128C43.3003 17.0128 43.578 16.8361 43.8023 16.4812C44.0265 16.1273 44.1881 15.9496 44.288 15.9496C44.387 15.9496 44.4745 15.9867 44.5491 16.0608C44.6236 16.1349 44.6442 16.2057 44.6107 16.2708Z" fill="#8491A0"/>
<path d="M54.3757 16.2797C53.2971 17.6754 51.9699 18.3728 50.3941 18.3728C48.7513 18.3728 47.4408 17.8531 46.4617 16.8117C45.4825 15.7714 44.9934 14.4165 44.9934 12.7476C44.9934 11.0792 45.537 9.6749 46.6237 8.53476C47.71 7.39556 49.0912 6.83309 50.767 6.84972C51.53 6.84972 52.2768 7.01457 53.0074 7.34426C53.9196 7.75661 54.3757 8.30008 54.3757 8.97656C54.3757 9.61884 54.0439 9.94046 53.3803 9.94046C52.9821 9.94046 52.6713 9.75138 52.4471 9.37181C52.2228 8.99271 52.012 8.61361 51.8126 8.23404C51.5143 7.83879 51.0988 7.64069 50.5681 7.64069C49.4728 7.64069 48.6437 8.16991 48.0796 9.22692C47.6483 10.0706 47.4327 11.0953 47.4327 12.3015C47.4327 13.6236 47.6976 14.74 48.2292 15.6483C48.8594 16.7723 49.7802 17.3343 50.9912 17.3343C51.6878 17.3343 52.3519 17.0839 52.9821 16.5842C53.1145 16.4673 53.5209 16.0417 54.2017 15.3082C54.2849 15.2246 54.3595 15.1828 54.4254 15.1828C54.5751 15.1828 54.6497 15.3077 54.6497 15.5566C54.6497 15.806 54.5584 16.0469 54.3757 16.2797Z" fill="#8491A0"/>
<path d="M63.3547 10.5554C63.2548 8.59627 62.4669 7.62478 60.9905 7.64093C59.398 7.65755 58.4437 8.79485 58.1281 11.0537H61.2391C62.6663 11.0537 63.371 10.8875 63.3547 10.5554ZM65.719 11.5972C65.719 11.7792 65.6276 11.886 65.445 11.9188H64.8976H58.0291C58.0124 12.1497 58.0043 12.3231 58.0043 12.4381C58.0043 13.7906 58.2529 14.886 58.7506 15.7274C59.3807 16.7654 60.3264 17.2851 61.5881 17.2851C62.4172 17.2851 63.1224 17.1036 63.7033 16.7411C64.0021 16.543 64.441 16.1392 65.0219 15.5293C65.0879 15.4637 65.1625 15.4305 65.2456 15.4305C65.4613 15.4305 65.5698 15.5293 65.5698 15.7274C65.5698 15.7929 65.5445 15.8675 65.4952 15.9492C64.549 17.5487 63.0559 18.3397 61.0154 18.3236C59.3889 18.3065 58.0789 17.7839 57.0835 16.7535C56.088 15.7231 55.5903 14.4081 55.5903 12.8091C55.5903 11.1606 56.0794 9.76777 57.0581 8.63C58.1037 7.42715 59.4391 6.83333 61.0651 6.84995C62.3091 6.84995 63.3461 7.2205 64.1761 7.96254C65.1878 8.85233 65.7022 10.0642 65.719 11.5972Z" fill="#8491A0"/>
<path d="M80.302 1.6076C80.302 1.85463 80.215 2.07316 80.0405 2.26271C79.866 2.45226 79.6547 2.54727 79.4056 2.54727C79.0078 2.54727 78.6923 2.25891 78.4604 1.68171C78.228 1.10451 77.9211 0.816151 77.54 0.816151C76.6771 0.816151 75.9962 1.32066 75.4985 2.33017C75.3164 2.67791 75.0262 3.54679 74.6274 4.93682L73.9562 7.27031H76.4194C76.635 7.27031 76.7435 7.37245 76.7435 7.57577C76.7435 7.91591 76.5604 8.08599 76.1951 8.08599H73.7573L71.2683 17.4057C70.6869 19.5753 70.1151 21.1781 69.5514 22.2138C68.522 24.0708 67.2364 25 65.6931 25C65.1127 25 64.5982 24.8352 64.1503 24.5055C63.7023 24.1753 63.4785 23.7387 63.4785 23.1948C63.4785 22.4532 63.8146 22.0822 64.4854 22.0822C64.9444 22.0822 65.2312 22.2632 65.3455 22.6261C65.378 22.7577 65.3948 23.1121 65.3948 23.6893C65.3948 24.0684 65.5697 24.2584 65.9192 24.2584C66.6192 24.2584 67.2355 23.6323 67.7681 22.3815C68.0019 21.8385 68.2935 20.9083 68.6425 19.5914L71.6914 8.08599H69.1029C68.9538 8.08599 68.8787 7.9924 68.8787 7.8057C68.8787 7.44846 69.0365 7.27031 69.3525 7.27031H71.841C72.5037 5.14347 73.151 3.58575 73.7812 2.59668C74.8598 0.865082 76.1951 0 77.7882 0C78.3691 0 78.9079 0.123991 79.4056 0.370545C80.0032 0.667458 80.302 1.07981 80.302 1.6076Z" fill="#8491A0"/>
<path d="M82.693 9.52013C82.693 8.16811 82.2365 7.4921 81.3242 7.4921C80.2791 7.4921 79.3162 8.58901 78.4379 10.7809C77.6906 12.6441 77.3172 14.2018 77.3172 15.4545C77.3172 16.8892 77.8063 17.6061 78.786 17.6061C79.8144 17.6061 80.7601 16.4935 81.623 14.2678C82.3364 12.3885 82.693 10.8061 82.693 9.52013ZM84.5094 10.8308C84.5094 12.5453 83.9959 14.169 82.9665 15.7021C81.8052 17.4327 80.4034 18.2987 78.7606 18.2987C77.6825 18.2987 76.853 17.8697 76.2721 17.0123C75.7409 16.2707 75.4756 15.3481 75.4756 14.2427C75.4756 12.5453 75.9986 10.9135 77.0438 9.3472C78.2218 7.59946 79.6236 6.72583 81.2492 6.72583C82.3278 6.72583 83.1573 7.15481 83.7382 8.01134C84.2526 8.77048 84.5094 9.70967 84.5094 10.8308Z" fill="#8491A0"/>
<path d="M94.5865 8.08586C94.5865 8.38277 94.4995 8.65449 94.325 8.90247C94.1514 9.14903 93.9224 9.27303 93.6403 9.27303C93.3587 9.27303 93.1426 9.1001 92.9935 8.75378C92.8438 8.40794 92.6449 8.23455 92.3968 8.23455C91.4836 8.23455 89.9905 11.4821 87.9174 17.9771H85.9759C86.4736 16.312 86.9713 14.6388 87.469 12.9576C88.2488 10.3035 88.6384 8.81126 88.6384 8.48157C88.6384 8.20176 88.5141 8.06115 88.2655 8.06115C87.8175 8.06115 87.3944 8.33335 86.9956 8.8773C86.8632 9.04262 86.5979 9.49535 86.2001 10.2374C86.1002 10.435 85.9591 10.5339 85.777 10.5339C85.5279 10.5339 85.4036 10.435 85.4036 10.2374L85.4279 10.1381C85.6436 9.31435 86.0667 8.56472 86.6978 7.88823C87.4102 7.14619 88.1656 6.77563 88.9621 6.77563C89.8408 6.77563 90.2807 7.27873 90.2807 8.28396C90.2807 8.59702 90.2228 8.98514 90.1071 9.44595C89.9905 9.84168 89.8829 10.2293 89.783 10.6084C91.0437 8.05354 92.2304 6.77563 93.3415 6.77563C93.7068 6.77563 94.0056 6.90342 94.238 7.15901C94.4698 7.41459 94.5865 7.72338 94.5865 8.08586Z" fill="#8491A0"/>
<path d="M117.307 17.6804C117.291 17.8785 117.158 17.9773 116.909 17.9773H110.339C110.09 17.9773 109.957 17.8785 109.941 17.6804C109.924 17.516 110.115 17.384 110.513 17.2852C111.193 17.0871 111.55 16.9797 111.583 16.9635C112.131 16.7327 112.404 15.8429 112.404 14.2928V2.62152L105.983 17.6557C105.835 18.002 105.718 18.1749 105.635 18.1749C105.552 18.1749 105.412 17.9526 105.212 17.5075L99.6874 4.8961C99.3886 4.22057 99.0898 3.65192 98.791 3.18969L98.9406 14.2928C98.9573 15.0842 98.9908 15.6201 99.0405 15.9004C99.1562 16.4438 99.3972 16.7992 99.7625 16.9635C99.795 16.9797 100.152 17.0871 100.832 17.2852C101.23 17.384 101.421 17.516 101.405 17.6804C101.388 17.8785 101.256 17.9773 101.006 17.9773H95.6809C95.4323 17.9773 95.2989 17.8785 95.2831 17.6804C95.2659 17.516 95.4567 17.384 95.8554 17.2852C96.5353 17.0871 96.8919 16.9797 96.9254 16.9635C97.2897 16.7992 97.5307 16.4277 97.6464 15.8505C97.7128 15.5707 97.7463 15.0514 97.7463 14.2928L97.8706 2.12651C97.6053 1.9132 97.2151 1.698 96.7012 1.48375C96.3364 1.38494 95.9797 1.27805 95.6312 1.16214C95.2324 1.06332 95.0421 0.931728 95.0589 0.766407C95.0747 0.568307 95.208 0.469971 95.4567 0.469971H98.4429C99.5707 0.487072 100.218 0.540279 100.384 0.63054C100.549 0.721752 100.799 1.15406 101.131 1.92888L106.432 14.2681L112.156 0.840992C112.255 0.593487 112.479 0.469971 112.827 0.469971H116.909C117.158 0.469971 117.291 0.568307 117.307 0.766407C117.323 0.931728 117.133 1.06332 116.735 1.16214C116.054 1.36024 115.698 1.4676 115.665 1.48375C115.117 1.7151 114.843 2.60537 114.843 4.15453V14.2928C114.843 15.8429 115.117 16.7327 115.665 16.9635C115.698 16.9797 116.054 17.0871 116.735 17.2852C117.133 17.384 117.323 17.516 117.307 17.6804Z" fill="#8491A0"/>
</svg>
