<svg width="31" height="32" viewBox="0 0 31 32" fill="none" xmlns="http://www.w3.org/2000/svg">
<path d="M16.2276 1.20013L29.0222 14.778L30.1532 13.5779L17.3586 0L16.2276 1.20013Z" fill="#5221E6"/>
<path fill-rule="evenodd" clip-rule="evenodd" d="M18.124 7.60133C17.4304 6.86522 16.3842 6.65144 15.4825 7.06151L6.60288 11.1001C5.55406 11.5771 4.74541 12.5059 4.38691 13.6597C3.54539 16.3682 2.45667 19.9468 1.57768 23.0059C1.13844 24.5346 0.74972 25.9401 0.470135 27.0447C0.330514 27.5963 0.216132 28.0807 0.136061 28.4716C0.0614907 28.8358 0 29.1944 0 29.4529V29.8044L2.06776 31.9988H2.39898C2.64267 31.9988 2.98062 31.9336 3.32373 31.8545C3.69215 31.7695 4.14856 31.6481 4.66835 31.4999C5.70923 31.2033 7.03354 30.7907 8.47404 30.3246C11.3567 29.3918 14.7289 28.2363 17.2811 27.3434C18.3684 26.9629 19.2435 26.1048 19.6931 24.9917L23.4987 15.5683C23.8851 14.6115 23.6835 13.5013 22.9899 12.7652L18.124 7.60133ZM16.1127 8.62152C16.4132 8.48483 16.7618 8.5561 16.9931 8.80147L21.859 13.9654C22.0903 14.2107 22.1575 14.5808 22.0286 14.8997L18.223 24.3232C17.9527 24.9924 17.4284 25.5046 16.7802 25.7314C14.2338 26.6224 10.8741 27.7735 8.00758 28.701C6.57348 29.1652 5.26888 29.5714 4.25347 29.8608C3.74515 30.0057 3.31659 30.1192 2.98406 30.196C2.91376 30.2121 2.84886 30.2265 2.78933 30.2389L10.9605 21.5674C11.8523 22.0195 12.9526 21.8535 13.6912 21.0697C14.6281 20.0755 14.6281 18.4636 13.6912 17.4694C12.7544 16.4751 11.2354 16.4751 10.2986 17.4694C9.55997 18.2532 9.40367 19.421 9.82965 20.3672L1.65837 29.0388C1.67012 28.9756 1.68361 28.9067 1.6989 28.8321C1.77117 28.4792 1.87816 28.0243 2.01471 27.485C2.28745 26.4074 2.67018 25.0229 3.10747 23.501C3.98156 20.4589 5.06617 16.8935 5.9058 14.1912C6.1195 13.5034 6.60214 12.947 7.23288 12.6601L16.1127 8.62152Z" fill="#5221E6"/>
</svg>
